<svg	xmlns="http://www.w3.org/2000/svg"
			version="1.1"
			width="31px"
			height="31px"
			viewBox="0 0 31 31">
		<g transform="translate(-885, -397)" fill="#449CFA">
			<g transform="translate(-4, 13)">
				<g transform="translate(505, 365)">
					<path d="M403.931031,41.5523512 C401.853821,43.0904366 399.283131,44 396.5,44 C389.596441,44 384,38.4035594 384,31.5 C384,24.5964406 389.596441,19 396.5,19 C403.403559,19 409,24.5964406 409,31.5 C409,34.5389713 407.915526,37.3246502 406.112468,39.4911479 L414.153148,47.5318278 C414.745782,48.1244621 414.742641,49.0710678 414.156854,49.6568542 C413.566984,50.2467247 412.619661,50.2409814 412.031828,49.6531482 L403.931031,41.5523512 Z M402.503829,38.8627181 C400.867406,40.1987204 398.777278,41 396.5,41 C391.253295,41 387,36.7467051 387,31.5 C387,26.2532949 391.253295,22 396.5,22 C401.746705,22 406,26.2532949 406,31.5 C406,34.0004288 405.033991,36.2752341 403.45482,37.9715695 C403.231523,38.0414836 403.021073,38.1652187 402.843146,38.3431458 C402.69029,38.4960016 402.577107,38.6734258 402.503829,38.8627181 Z"></path>
				</g>
			</g>
		</g>
</svg>